<?xml version="1.0" standalone="no"?><!DOCTYPE svg PUBLIC "-//W3C//DTD SVG 1.1//EN" "http://www.w3.org/Graphics/SVG/1.1/DTD/svg11.dtd"><svg t="1741681778598" class="icon" viewBox="0 0 1024 1024" version="1.1" xmlns="http://www.w3.org/2000/svg" p-id="978" xmlns:xlink="http://www.w3.org/1999/xlink" width="200" height="200"><path d="M896.8704 512c0-44.288 42.9056-94.8224 29.952-134.8096-13.4656-41.3696-78.336-56.9344-103.424-91.392s-20.48-101.2736-55.0912-126.6176-95.9488 0-137.3696-13.312C591.0016 133.12 556.288 75.9296 512 75.9296S432.9472 133.12 393.0112 145.8688c-41.4208 13.4144-102.912-11.776-137.3696 13.312S225.8944 250.88 200.5504 285.7984 110.592 335.8208 97.28 377.1904c-12.9536 39.9872 30.0032 90.5216 30.0032 134.8096s-43.1104 94.8224-30.0032 134.8096c13.4656 41.3696 78.3872 56.9344 103.424 91.392s20.48 101.2736 55.0912 126.6176 95.9488 0 137.3696 13.312c39.936 13.0048 74.7008 69.9392 118.9888 69.9392s79.0016-56.9344 118.9376-69.9392c41.4208-13.4144 102.912 11.776 137.3696-13.312s29.7472-91.8016 55.0912-126.6176 89.9584-50.0224 103.424-91.392c12.8-39.9872-30.1056-90.5216-30.1056-134.8096z m-195.7888-98.8672l-137.7792 286.72a54.3744 54.3744 0 0 1-49.1008 31.0784h-0.3072a54.4768 54.4768 0 0 1-49.2032-30.72L323.0208 413.3376a25.6 25.6 0 0 1 46.08-22.6304l141.5168 287.1808a3.328 3.328 0 0 0 3.2768 1.9968 3.2768 3.2768 0 0 0 3.2768-2.048l137.7792-286.72a25.6 25.6 0 0 1 46.08 22.1696z" fill="#F5504E" p-id="979"></path><path d="M911.616 353.28c-24.6784-25.1904-68.608-40.6016-88.2176-67.5328-25.344-34.816-20.48-101.2736-55.0912-126.6176s-95.9488 0-137.3696-13.312C591.0016 133.12 556.288 75.9296 512 75.9296S432.9472 133.12 393.0112 145.8688c-41.4208 13.4144-102.912-11.776-137.3696 13.312S225.8944 250.88 200.5504 285.7984 110.592 335.8208 97.28 377.1904c-12.9536 39.9872 30.0032 90.5216 30.0032 134.8096s-43.1104 94.8224-30.0032 134.8096c13.4656 41.3696 78.3872 56.9344 103.424 91.392a117.4016 117.4016 0 0 1 16.0256 36.3008 477.696 477.696 0 0 0 270.848 50.5856C733.7984 798.72 916.48 591.872 911.616 353.28z m-210.5344 59.8528l-137.7792 286.72a54.3744 54.3744 0 0 1-49.1008 31.0784h-0.3072a54.4768 54.4768 0 0 1-49.2032-30.72L323.0208 413.3376a25.6 25.6 0 0 1 46.08-22.6304l141.5168 287.1808a3.328 3.328 0 0 0 3.2768 1.9968 3.2768 3.2768 0 0 0 3.2768-2.048l137.7792-286.72a25.6 25.6 0 0 1 46.08 22.1696z" fill="#FF5A5A" p-id="980"></path><path d="M624.0256 573.44a465.6128 465.6128 0 0 0 185.8048-316.3136c-11.52-35.0208-14.7968-78.6432-41.5232-98.0992-34.4576-25.088-95.9488 0-137.3696-13.312-39.936-12.5952-74.6496-69.7856-118.9376-69.7856S432.9472 133.12 393.0112 145.8688c-41.4208 13.4144-102.912-11.776-137.3696 13.312S225.8944 250.88 200.5504 285.7984 110.592 335.8208 97.28 377.1904c-12.9536 39.9872 30.0032 90.5216 30.0032 134.8096 0 29.5424-19.1488 61.9008-28.0064 92.16A477.0816 477.0816 0 0 0 389.12 664.9344a489.0112 489.0112 0 0 0 53.9136-8.8064L323.0208 413.3376a25.6 25.6 0 0 1 46.08-22.6304l124.0576 251.4432a472.2176 472.2176 0 0 0 51.2-20.48l110.6944-230.4a25.6 25.6 0 0 1 46.08 22.1696z" fill="#F66A68" p-id="981"></path><path d="M271.8208 517.5808a481.5872 481.5872 0 0 0 93.1328-19.2l-41.9328-85.0432a25.6 25.6 0 0 1 46.08-22.6304l44.0832 89.7024A469.8112 469.8112 0 0 0 686.08 149.1968c-19.6608 1.28-39.0144 1.9456-55.296-3.328-39.7824-12.7488-74.496-69.9392-118.784-69.9392S432.9472 133.12 393.0112 145.8688c-41.4208 13.4144-102.912-11.776-137.3696 13.312S225.8944 250.88 200.5504 285.7984 110.592 335.8208 97.28 377.1904c-12.8512 39.7312 29.44 89.9072 29.952 133.9904a481.28 481.28 0 0 0 144.5888 6.4z" fill="#F67271" p-id="982"></path><path d="M542.72 84.5824a65.28 65.28 0 0 0-30.72-8.6528c-44.288 0-79.0528 56.9344-118.9888 69.9392-41.4208 13.4144-102.912-11.776-137.3696 13.312S225.8944 250.88 200.5504 285.7984c-21.9648 30.208-74.496 46.08-96.2048 77.1584a439.9104 439.9104 0 0 0 77.7728-1.28A432.4864 432.4864 0 0 0 542.72 84.5824z" fill="#F67B7A" p-id="983"></path></svg>